<svg version="1" xmlns="http://www.w3.org/2000/svg" width="766.667" height="766.667" viewBox="0 0 575.000000 575.000000"><path d="M0 49.9v49.9l7.3-7.3c12-12.1 26.2-19.8 42.4-23.1 10.9-2.3 31.1-1.5 40.8 1.6 26.7 8.4 46.8 28.4 55.8 55.3 2.9 8.6 3.1 10.2 3.2 24.2 0 12.8-.3 16.2-2.3 23-2.8 9.7-9.5 22.7-16 30.7-6.2 7.8-18.3 17.5-27.5 22.1-7.9 3.8-20.3 7.7-25 7.7-1.5 0-3 .7-3.3 1.5-.3.8 1.5 38.3 4 83.2 2.5 45 4.6 82.4 4.6 83 0 1 22.2 1.3 107.5 1.3H299v79H91.9l.6 5.7c.3 3.2 1.2 15 2 26.2s1.6 20.6 1.8 20.8c.2.2 61.3-.1 135.8-.7 136.6-1 157.6-1 152.8-.3l-2.7.4 8.7 20.2 8.7 20.2 87.7.3 87.7.2V0H0v49.9zM.1 434.2L0 575h20l-.1-4.8c0-2.6-4.4-65.9-9.8-140.7l-9.9-136-.1 140.7z"/></svg>